<svg width="45" height="45" viewBox="0 0 45 45" fill="none" xmlns="http://www.w3.org/2000/svg">
<g filter="url(#filter0_i_1384_616)">
<circle cx="22.3186" cy="22.3186" r="22.3186" fill="#040518"/>
</g>
<circle cx="22.3186" cy="22.3186" r="21.8186" stroke="#F3E6A2"/>
<g filter="url(#filter1_i_1384_616)">
<path d="M18.1632 11.9646H26.474C29.64 11.9646 32.2124 14.537 32.2124 17.703V26.0138C32.2124 27.5357 31.6078 28.9953 30.5317 30.0715C29.4555 31.1476 27.9959 31.7522 26.474 31.7522H18.1632C14.9972 31.7522 12.4248 29.1798 12.4248 26.0138V17.703C12.4248 16.1811 13.0294 14.7215 14.1055 13.6453C15.1817 12.5692 16.6413 11.9646 18.1632 11.9646ZM17.9653 13.9434C17.0207 13.9434 16.1147 14.3186 15.4468 14.9866C14.7788 15.6545 14.4036 16.5605 14.4036 17.5051V26.2117C14.4036 28.1805 15.9965 29.7734 17.9653 29.7734H26.6719C27.6165 29.7734 28.5225 29.3982 29.1904 28.7302C29.8584 28.0623 30.2337 27.1563 30.2337 26.2117V17.5051C30.2337 15.5363 28.6408 13.9434 26.6719 13.9434H17.9653ZM27.5129 15.4274C27.8409 15.4274 28.1554 15.5577 28.3874 15.7897C28.6193 16.0216 28.7496 16.3362 28.7496 16.6642C28.7496 16.9922 28.6193 17.3067 28.3874 17.5387C28.1554 17.7706 27.8409 17.9009 27.5129 17.9009C27.1849 17.9009 26.8703 17.7706 26.6384 17.5387C26.4064 17.3067 26.2761 16.9922 26.2761 16.6642C26.2761 16.3362 26.4064 16.0216 26.6384 15.7897C26.8703 15.5577 27.1849 15.4274 27.5129 15.4274ZM22.3186 16.9115C23.6306 16.9115 24.8889 17.4327 25.8166 18.3604C26.7443 19.2881 27.2655 20.5464 27.2655 21.8584C27.2655 23.1704 26.7443 24.4287 25.8166 25.3564C24.8889 26.2841 23.6306 26.8053 22.3186 26.8053C21.0066 26.8053 19.7483 26.2841 18.8206 25.3564C17.8929 24.4287 17.3717 23.1704 17.3717 21.8584C17.3717 20.5464 17.8929 19.2881 18.8206 18.3604C19.7483 17.4327 21.0066 16.9115 22.3186 16.9115ZM22.3186 18.8903C21.5314 18.8903 20.7765 19.203 20.2198 19.7596C19.6632 20.3162 19.3505 21.0712 19.3505 21.8584C19.3505 22.6456 19.6632 23.4006 20.2198 23.9572C20.7765 24.5138 21.5314 24.8265 22.3186 24.8265C23.1058 24.8265 23.8608 24.5138 24.4174 23.9572C24.974 23.4006 25.2868 22.6456 25.2868 21.8584C25.2868 21.0712 24.974 20.3162 24.4174 19.7596C23.8608 19.203 23.1058 18.8903 22.3186 18.8903Z" fill="#F3E6A2"/>
</g>
<path d="M18.1631 12.4646H26.4736C29.3635 12.4646 31.7128 14.8131 31.7129 17.7029V26.0134C31.7129 27.4027 31.1601 28.7351 30.1777 29.7175C29.1953 30.6999 27.8629 31.2527 26.4736 31.2527H18.1631C15.2733 31.2526 12.9248 28.9033 12.9248 26.0134V17.7029C12.9248 16.3136 13.4766 14.9811 14.459 13.9988C15.4413 13.0164 16.7738 12.4646 18.1631 12.4646ZM17.9658 13.4431C16.8886 13.4431 15.8545 13.8708 15.0928 14.6326C14.331 15.3943 13.9033 16.4284 13.9033 17.5056V26.2117C13.9033 28.4567 15.7208 30.2732 17.9658 30.2732H26.6719C27.7491 30.2732 28.7822 29.8455 29.5439 29.0837C30.3057 28.322 30.7334 27.2889 30.7334 26.2117V17.5056C30.7334 15.2606 28.9169 13.4431 26.6719 13.4431H17.9658ZM22.3184 17.4119C23.4976 17.4119 24.629 17.8798 25.4629 18.7136C26.2968 19.5475 26.7656 20.6789 26.7656 21.8582C26.7656 23.0375 26.2968 24.1687 25.4629 25.0027C24.6289 25.8366 23.4978 26.3054 22.3184 26.3054C21.1391 26.3054 20.0077 25.8366 19.1738 25.0027C18.34 24.1688 17.8721 23.0374 17.8721 21.8582C17.8721 20.6789 18.3399 19.5475 19.1738 18.7136C20.0077 17.8797 21.1391 17.4119 22.3184 17.4119ZM22.3184 18.3904C21.3986 18.3904 20.5166 18.7557 19.8662 19.406C19.2159 20.0563 18.8507 20.9384 18.8506 21.8582C18.8506 22.7778 19.216 23.6599 19.8662 24.3103C20.5166 24.9606 21.3986 25.3268 22.3184 25.3269C23.2382 25.3269 24.1201 24.9607 24.7705 24.3103C25.4209 23.6599 25.7871 22.778 25.7871 21.8582C25.787 20.9384 25.4209 20.0563 24.7705 19.406C24.1201 18.7558 23.238 18.3904 22.3184 18.3904ZM27.5127 15.9275C27.7081 15.9275 27.896 16.0051 28.0342 16.1433C28.1721 16.2814 28.2499 16.4687 28.25 16.6638C28.25 16.8592 28.1723 17.0471 28.0342 17.1853C27.896 17.3235 27.7081 17.4011 27.5127 17.4011C27.3175 17.4011 27.1303 17.3233 26.9922 17.1853C26.854 17.0471 26.7764 16.8592 26.7764 16.6638C26.7765 16.4685 26.8541 16.2814 26.9922 16.1433C27.1303 16.0052 27.3174 15.9275 27.5127 15.9275Z" stroke="#F3E6A2"/>
<defs>
<filter id="filter0_i_1384_616" x="0" y="0" width="44.6367" height="48.6372" filterUnits="userSpaceOnUse" color-interpolation-filters="sRGB">
<feFlood flood-opacity="0" result="BackgroundImageFix"/>
<feBlend mode="normal" in="SourceGraphic" in2="BackgroundImageFix" result="shape"/>
<feColorMatrix in="SourceAlpha" type="matrix" values="0 0 0 0 0 0 0 0 0 0 0 0 0 0 0 0 0 0 127 0" result="hardAlpha"/>
<feOffset dy="4"/>
<feGaussianBlur stdDeviation="2"/>
<feComposite in2="hardAlpha" operator="arithmetic" k2="-1" k3="1"/>
<feColorMatrix type="matrix" values="0 0 0 0 0 0 0 0 0 0 0 0 0 0 0 0 0 0 0.25 0"/>
<feBlend mode="normal" in2="shape" result="effect1_innerShadow_1384_616"/>
</filter>
<filter id="filter1_i_1384_616" x="12.4248" y="11.9646" width="19.7881" height="23.7876" filterUnits="userSpaceOnUse" color-interpolation-filters="sRGB">
<feFlood flood-opacity="0" result="BackgroundImageFix"/>
<feBlend mode="normal" in="SourceGraphic" in2="BackgroundImageFix" result="shape"/>
<feColorMatrix in="SourceAlpha" type="matrix" values="0 0 0 0 0 0 0 0 0 0 0 0 0 0 0 0 0 0 127 0" result="hardAlpha"/>
<feOffset dy="4"/>
<feGaussianBlur stdDeviation="2"/>
<feComposite in2="hardAlpha" operator="arithmetic" k2="-1" k3="1"/>
<feColorMatrix type="matrix" values="0 0 0 0 0 0 0 0 0 0 0 0 0 0 0 0 0 0 0.25 0"/>
<feBlend mode="normal" in2="shape" result="effect1_innerShadow_1384_616"/>
</filter>
</defs>
</svg>
