<svg width="32" height="29" viewBox="0 0 32 29" fill="none" xmlns="http://www.w3.org/2000/svg">
<path d="M12.5774 2.20908C13.5635 1.74221 14.6414 1.5 15.7329 1.5C16.8244 1.5 17.9022 1.74221 18.8883 2.20908L28.4115 6.6625C30.4838 7.63069 30.4838 10.9839 28.4115 11.9521L18.8897 16.4055C17.9035 16.8726 16.8254 17.1149 15.7336 17.1149C14.6418 17.1149 13.5637 16.8726 12.5774 16.4055L3.05423 11.9521C0.981924 10.9839 0.981924 7.63069 3.05423 6.6625L12.5774 2.20908Z" stroke="#184274" stroke-width="3"/>
<path d="M1.5 9.30713V17.1152M25.6959 13.5661V20.8417C25.6959 22.2727 24.98 23.6129 23.7246 24.3057C21.6338 25.4627 18.2891 27.0527 15.7329 27.0527C13.1766 27.0527 9.83192 25.4612 7.74111 24.3071C6.4872 23.6129 5.76986 22.2727 5.76986 20.8431V13.5661" stroke="#184274" stroke-width="3" stroke-linecap="round"/>
</svg>
